<svg xmlns="http://www.w3.org/2000/svg" viewBox="0 0 512 512">
  <defs>
    <linearGradient id="grad" x1="0%" y1="0%" x2="100%" y2="100%">
      <stop offset="0%" style="stop-color:#0ea5e9;stop-opacity:1" />
      <stop offset="100%" style="stop-color:#06b6d4;stop-opacity:1" />
    </linearGradient>
  </defs>
  <rect width="512" height="512" rx="96" fill="#000"/>
  <rect x="32" y="32" width="448" height="448" rx="80" fill="url(#grad)" opacity="0.1"/>
  <path d="M180 140h152c22 0 40 18 40 40v152c0 22-18 40-40 40H180c-22 0-40-18-40-40V180c0-22 18-40 40-40z" fill="none" stroke="url(#grad)" stroke-width="24"/>
  <path d="M200 220h112M200 260h112M200 300h80" stroke="url(#grad)" stroke-width="20" stroke-linecap="round"/>
  <circle cx="380" cy="380" r="60" fill="url(#grad)"/>
  <path d="M365 380l15 15 30-30" stroke="#000" stroke-width="12" stroke-linecap="round" stroke-linejoin="round" fill="none"/>
</svg>
